<?xml version="1.0" encoding="utf-8"?>
<!-- Generator: Adobe Illustrator 24.3.0, SVG Export Plug-In . SVG Version: 6.00 Build 0)  -->
<svg version="1.1" xmlns="http://www.w3.org/2000/svg" xmlns:xlink="http://www.w3.org/1999/xlink" x="0px" y="0px"
	 viewBox="0 0 1080 1080" style="enable-background:new 0 0 1080 1080;" xml:space="preserve">
<style type="text/css">
	.st0{fill:#FFFFFF;}
	.st1{fill:#FF6900;}
	.st2{fill:none;}
	.st3{font-family:'CamphorProForXiaoMi-Bold';}
	.st4{font-size:67.4577px;}
	.st5{display:none;}
	.st6{display:inline;}
	.st7{fill:#191919;}
	.st8{display:inline;fill:none;}
	.st9{display:inline;fill:#FFFFFF;}
	.st10{display:none;fill:#FF6900;}
	.st11{fill:#898989;}
</style>
<g id="Arancione">
	<g>
		<rect x="449.43" y="338.98" class="st0" width="174.52" height="114.96"/>
		<path class="st1" d="M645.79,287.1c-26-25.9-63.38-28.79-109.06-28.79c-45.74,0-83.18,2.93-109.16,28.89
			c-25.98,25.96-28.62,63.34-28.62,109.03s2.64,83.08,28.63,109.05c25.99,25.97,63.42,28.6,109.15,28.6
			c45.74,0,83.16-2.63,109.15-28.6c25.99-25.97,28.63-63.36,28.63-109.05C674.52,350.48,671.84,313.06,645.79,287.1 M526.59,447.16
			c0,0.92-0.78,1.69-1.73,1.69h-23.5c-0.96,0-1.75-0.77-1.75-1.69V385.7c0-0.93,0.78-1.7,1.75-1.7h23.5c0.95,0,1.73,0.76,1.73,1.7
			V447.16z M572.6,447.16c0,0.92-0.78,1.69-1.74,1.69H548.5c-0.96,0-1.74-0.77-1.74-1.69v-0.23v-52.79
			c-0.02-9.26-0.55-18.77-5.33-23.55c-4.11-4.12-11.77-5.07-19.74-5.26h-40.55c-0.96,0-1.73,0.77-1.73,1.7v74.6v5.54
			c0,0.92-0.79,1.69-1.75,1.69h-22.38c-0.96,0-1.73-0.77-1.73-1.69V345.04c0-0.94,0.77-1.7,1.73-1.7h64.58
			c16.88,0,34.52,0.77,43.22,9.48c8.74,8.75,9.52,26.37,9.52,43.26V447.16z M618.68,447.16c0,0.92-0.79,1.69-1.74,1.69h-22.38
			c-0.96,0-1.73-0.77-1.73-1.69V345.04c0-0.94,0.78-1.7,1.73-1.7h22.38c0.95,0,1.74,0.76,1.74,1.7V447.16z"/>
	</g>
	<rect x="239.4" y="599.69" class="st2" width="597.59" height="85.54"/>
	<text transform="matrix(1 0 0 1 251.6417 648.1918)" class="st0 st3 st4">Xiaomi Store Italia</text>
	<g>
		<path d="M254.47,601.78h10.12l10.93,16.53l11-16.53h10.12l-15.79,22.8l16.39,23.61h-10.32l-11.4-17.34l-11.33,17.34H253.8
			l16.46-23.61L254.47,601.78z"/>
		<path d="M307.16,600.23c2.83,0,4.92,2.02,4.92,4.92c0,2.83-2.09,4.86-4.92,4.86c-2.9,0-4.92-2.02-4.92-4.86
			C302.23,602.25,304.26,600.23,307.16,600.23z M311.48,614.46v33.73h-8.63v-33.73H311.48z"/>
		<path d="M329.35,649c-6.27,0-10.73-4.12-10.73-10.05c0-7.02,6.61-11.87,16.26-11.87c1.35,0,2.7,0.07,4.18,0.13v-1.55
			c0-3.17-2.56-5.33-6.34-5.33c-3.51,0-7.35,1.08-11.2,3.24v-7.15c4.12-1.89,8.23-2.77,12.21-2.77c8.23,0,13.56,5.13,13.56,12.41
			v22.13h-8.23v-2.7C336.1,647.79,332.79,649,329.35,649z M332.18,642.32c2.36,0,4.79-1.21,6.88-3.31v-6.61
			c-1.21-0.13-2.43-0.2-3.78-0.2c-4.86,0-8.16,2.29-8.16,5.53C327.12,640.43,329.22,642.32,332.18,642.32z"/>
		<path d="M371.58,613.65c10.19,0,17.34,7.29,17.34,17.67c0,10.32-7.15,17.67-17.34,17.67s-17.4-7.35-17.4-17.67
			C354.17,620.94,361.39,613.65,371.58,613.65z M371.58,641.78c4.99,0,8.5-4.25,8.5-10.46c0-6.21-3.51-10.46-8.5-10.46
			c-5.06,0-8.57,4.25-8.57,10.46C363.01,637.53,366.52,641.78,371.58,641.78z"/>
		<path d="M404.7,614.46v2.7c2.97-2.43,6.21-3.51,9.58-3.51c4.05,0,7.42,1.75,9.51,5.06c3.37-3.37,7.22-5.06,11.2-5.06
			c6.68,0,11.2,4.86,11.2,11.81v22.73h-8.63v-21.38c0-3.24-2.16-5.6-5.26-5.6c-2.23,0-4.65,1.15-6.81,3.44v23.54h-8.63v-21.38
			c0-3.24-2.23-5.6-5.33-5.6c-2.23,0-4.65,1.15-6.81,3.44v23.54h-8.63v-33.73H404.7z"/>
		<path d="M459.68,600.23c2.83,0,4.92,2.02,4.92,4.92c0,2.83-2.09,4.86-4.92,4.86c-2.9,0-4.92-2.02-4.92-4.86
			C454.75,602.25,456.78,600.23,459.68,600.23z M464,614.46v33.73h-8.63v-33.73H464z"/>
		<path d="M502.72,641.92c5.13,0,8.63-2.7,8.63-6.61c0-9.51-22.53-4.86-22.53-20.91c0-7.96,6.81-13.42,16.59-13.42
			c4.12,0,8.37,0.88,12.48,2.56v8.03c-3.91-2.36-8.03-3.51-11.87-3.51c-4.92,0-8.37,2.5-8.37,6.21c0,9.24,22.53,4.59,22.53,20.91
			c0,8.16-7.02,13.83-16.86,13.83c-4.45,0-9.11-1.01-13.56-3.1v-8.16C494.08,640.5,498.47,641.92,502.72,641.92z"/>
		<path d="M547.44,614.46v6.95h-9.71v15.58c0,2.77,1.96,4.79,4.93,4.79c1.42,0,3.04-0.47,4.79-1.35v7.15
			c-2.43,0.94-4.79,1.42-7.08,1.42c-6.61,0-11.27-4.52-11.27-10.86v-16.73h-5.8v-6.95h5.8v-9.51h8.63v9.51H547.44z"/>
		<path d="M569.36,613.65c10.19,0,17.34,7.29,17.34,17.67c0,10.32-7.15,17.67-17.34,17.67s-17.4-7.35-17.4-17.67
			C551.96,620.94,559.18,613.65,569.36,613.65z M569.36,641.78c4.99,0,8.5-4.25,8.5-10.46c0-6.21-3.51-10.46-8.5-10.46
			c-5.06,0-8.57,4.25-8.57,10.46C560.8,637.53,564.3,641.78,569.36,641.78z"/>
		<path d="M602.48,614.46v3.37c2.43-2.7,5.4-4.18,8.3-4.18c0.94,0,1.89,0.07,2.83,0.34v7.69c-0.94-0.27-2.02-0.4-3.04-0.4
			c-2.83,0-5.87,1.55-8.1,4.38v22.53h-8.63v-33.73H602.48z"/>
		<path d="M633.38,613.65c8.84,0,14.84,6.95,14.84,16.87c0,0.94,0,2.02-0.13,3.17h-22.87c0.54,5.13,4.59,8.63,10.25,8.63
			c3.1,0,6.54-1.15,10.05-3.17v7.22c-3.84,1.75-7.69,2.63-11.47,2.63c-10.19,0-17.34-7.42-17.34-17.94
			C616.72,620.87,623.73,613.65,633.38,613.65z M633.04,620.33c-4.18,0-7.42,3.1-7.83,7.76h14.71
			C639.65,623.5,636.89,620.33,633.04,620.33z"/>
		<path d="M682.08,601.78v46.41h-8.77v-46.41H682.08z"/>
		<path d="M713.52,614.46v6.95h-9.71v15.58c0,2.77,1.96,4.79,4.92,4.79c1.42,0,3.04-0.47,4.79-1.35v7.15
			c-2.43,0.94-4.79,1.42-7.08,1.42c-6.61,0-11.27-4.52-11.27-10.86v-16.73h-5.8v-6.95h5.8v-9.51h8.63v9.51H713.52z"/>
		<path d="M729.3,649c-6.27,0-10.73-4.12-10.73-10.05c0-7.02,6.61-11.87,16.26-11.87c1.35,0,2.7,0.07,4.18,0.13v-1.55
			c0-3.17-2.56-5.33-6.34-5.33c-3.51,0-7.35,1.08-11.2,3.24v-7.15c4.12-1.89,8.23-2.77,12.21-2.77c8.23,0,13.56,5.13,13.56,12.41
			v22.13h-8.23v-2.7C736.05,647.79,732.74,649,729.3,649z M732.14,642.32c2.36,0,4.79-1.21,6.88-3.31v-6.61
			c-1.21-0.13-2.43-0.2-3.78-0.2c-4.86,0-8.16,2.29-8.16,5.53C727.08,640.43,729.17,642.32,732.14,642.32z"/>
		<path d="M765.05,599.69v48.5h-8.63v-48.5H765.05z"/>
		<path d="M778.81,600.23c2.83,0,4.92,2.02,4.92,4.92c0,2.83-2.09,4.86-4.92,4.86c-2.9,0-4.92-2.02-4.92-4.86
			C773.89,602.25,775.91,600.23,778.81,600.23z M783.13,614.46v33.73h-8.63v-33.73H783.13z"/>
		<path d="M801.01,649c-6.27,0-10.73-4.12-10.73-10.05c0-7.02,6.61-11.87,16.26-11.87c1.35,0,2.7,0.07,4.18,0.13v-1.55
			c0-3.17-2.56-5.33-6.34-5.33c-3.51,0-7.35,1.08-11.2,3.24v-7.15c4.12-1.89,8.23-2.77,12.21-2.77c8.23,0,13.56,5.13,13.56,12.41
			v22.13h-8.23v-2.7C807.75,647.79,804.45,649,801.01,649z M803.84,642.32c2.36,0,4.79-1.21,6.88-3.31v-6.61
			c-1.21-0.13-2.43-0.2-3.78-0.2c-4.86,0-8.16,2.29-8.16,5.53C798.78,640.43,800.87,642.32,803.84,642.32z"/>
	</g>
</g>
<g id="Nero" class="st5">
	<g class="st6">
		<rect x="449.43" y="338.98" class="st0" width="174.52" height="114.96"/>
		<path class="st7" d="M645.79,287.1c-26-25.9-63.38-28.79-109.06-28.79c-45.74,0-83.18,2.93-109.16,28.89
			c-25.98,25.96-28.62,63.34-28.62,109.03s2.64,83.08,28.63,109.05c25.99,25.97,63.42,28.6,109.15,28.6
			c45.74,0,83.16-2.63,109.15-28.6c25.99-25.97,28.63-63.36,28.63-109.05C674.52,350.48,671.84,313.06,645.79,287.1 M526.59,447.16
			c0,0.92-0.78,1.69-1.73,1.69h-23.5c-0.96,0-1.75-0.77-1.75-1.69V385.7c0-0.93,0.78-1.7,1.75-1.7h23.5c0.95,0,1.73,0.76,1.73,1.7
			V447.16z M572.6,447.16c0,0.92-0.78,1.69-1.74,1.69H548.5c-0.96,0-1.74-0.77-1.74-1.69v-0.23v-52.79
			c-0.02-9.26-0.55-18.77-5.33-23.55c-4.11-4.12-11.77-5.07-19.74-5.26h-40.55c-0.96,0-1.73,0.77-1.73,1.7v74.6v5.54
			c0,0.92-0.79,1.69-1.75,1.69h-22.38c-0.96,0-1.73-0.77-1.73-1.69V345.04c0-0.94,0.77-1.7,1.73-1.7h64.58
			c16.88,0,34.52,0.77,43.22,9.48c8.74,8.75,9.52,26.37,9.52,43.26V447.16z M618.68,447.16c0,0.92-0.79,1.69-1.74,1.69h-22.38
			c-0.96,0-1.73-0.77-1.73-1.69V345.04c0-0.94,0.78-1.7,1.73-1.7h22.38c0.95,0,1.74,0.76,1.74,1.7V447.16z"/>
	</g>
	<rect x="239.4" y="599.69" class="st8" width="597.59" height="85.54"/>
	<text transform="matrix(1 0 0 1 251.6417 648.1918)" class="st3 st4">Xiaomi Store Italia</text>
	<rect x="239.4" y="599.69" class="st8" width="597.59" height="85.54"/>
	<text transform="matrix(1 0 0 1 251.6417 648.1918)" class="st9 st3 st4">Xiaomi Store Italia</text>
</g>
<g id="Bianco" class="st5">
	<g class="st6">
		<rect x="449.43" y="338.98" class="st10" width="174.52" height="114.96"/>
		<path class="st0" d="M645.79,287.1c-26-25.9-63.38-28.79-109.06-28.79c-45.74,0-83.18,2.93-109.16,28.89
			c-25.98,25.96-28.62,63.34-28.62,109.03s2.64,83.08,28.63,109.05c25.99,25.97,63.42,28.6,109.15,28.6
			c45.74,0,83.16-2.63,109.15-28.6c25.99-25.97,28.63-63.36,28.63-109.05C674.52,350.48,671.84,313.06,645.79,287.1 M526.59,447.16
			c0,0.92-0.78,1.69-1.73,1.69h-23.5c-0.96,0-1.75-0.77-1.75-1.69V385.7c0-0.93,0.78-1.7,1.75-1.7h23.5c0.95,0,1.73,0.76,1.73,1.7
			V447.16z M572.6,447.16c0,0.92-0.78,1.69-1.74,1.69H548.5c-0.96,0-1.74-0.77-1.74-1.69v-0.23v-52.79
			c-0.02-9.26-0.55-18.77-5.33-23.55c-4.11-4.12-11.77-5.07-19.74-5.26h-40.55c-0.96,0-1.73,0.77-1.73,1.7v74.6v5.54
			c0,0.92-0.79,1.69-1.75,1.69h-22.38c-0.96,0-1.73-0.77-1.73-1.69V345.04c0-0.94,0.77-1.7,1.73-1.7h64.58
			c16.88,0,34.52,0.77,43.22,9.48c8.74,8.75,9.52,26.37,9.52,43.26V447.16z M618.68,447.16c0,0.92-0.79,1.69-1.74,1.69h-22.38
			c-0.96,0-1.73-0.77-1.73-1.69V345.04c0-0.94,0.78-1.7,1.73-1.7h22.38c0.95,0,1.74,0.76,1.74,1.7V447.16z"/>
	</g>
	<rect x="239.4" y="599.69" class="st8" width="597.59" height="85.54"/>
	<text transform="matrix(1 0 0 1 251.6417 648.1918)" class="st9 st3 st4">Xiaomi Store Italia</text>
</g>
<g id="Grigio" class="st5">
	<g class="st6">
		<rect x="449.43" y="338.98" class="st10" width="174.52" height="114.96"/>
		<path class="st11" d="M645.79,287.1c-26-25.9-63.38-28.79-109.06-28.79c-45.74,0-83.18,2.93-109.16,28.89
			c-25.98,25.96-28.62,63.34-28.62,109.03s2.64,83.08,28.63,109.05c25.99,25.97,63.42,28.6,109.15,28.6
			c45.74,0,83.16-2.63,109.15-28.6c25.99-25.97,28.63-63.36,28.63-109.05C674.52,350.48,671.84,313.06,645.79,287.1 M526.59,447.16
			c0,0.92-0.78,1.69-1.73,1.69h-23.5c-0.96,0-1.75-0.77-1.75-1.69V385.7c0-0.93,0.78-1.7,1.75-1.7h23.5c0.95,0,1.73,0.76,1.73,1.7
			V447.16z M572.6,447.16c0,0.92-0.78,1.69-1.74,1.69H548.5c-0.96,0-1.74-0.77-1.74-1.69v-0.23v-52.79
			c-0.02-9.26-0.55-18.77-5.33-23.55c-4.11-4.12-11.77-5.07-19.74-5.26h-40.55c-0.96,0-1.73,0.77-1.73,1.7v74.6v5.54
			c0,0.92-0.79,1.69-1.75,1.69h-22.38c-0.96,0-1.73-0.77-1.73-1.69V345.04c0-0.94,0.77-1.7,1.73-1.7h64.58
			c16.88,0,34.52,0.77,43.22,9.48c8.74,8.75,9.52,26.37,9.52,43.26V447.16z M618.68,447.16c0,0.92-0.79,1.69-1.74,1.69h-22.38
			c-0.96,0-1.73-0.77-1.73-1.69V345.04c0-0.94,0.78-1.7,1.73-1.7h22.38c0.95,0,1.74,0.76,1.74,1.7V447.16z"/>
	</g>
	<rect x="239.4" y="599.69" class="st8" width="597.59" height="85.54"/>
	<text transform="matrix(1 0 0 1 251.6417 648.1918)" class="st9 st3 st4">Xiaomi Store Italia</text>
</g>
</svg>
